<?xml version="1.0" encoding="utf-8"?>
<!-- Generator: Adobe Illustrator 25.0.0, SVG Export Plug-In . SVG Version: 6.00 Build 0)  -->
<svg version="1.1" id="Capa_1" xmlns="http://www.w3.org/2000/svg" xmlns:xlink="http://www.w3.org/1999/xlink" x="0px" y="0px"
	 viewBox="0 0 448.94 165.88" style="enable-background:new 0 0 448.94 165.88;" xml:space="preserve">
<style type="text/css">
	.st0{fill:#3C3C3B;}
	.st1{fill:#575756;}
	.st2{fill:#2D57A4;}
</style>
<path class="st0" d="M48.48,92.76c-3.98,0-7.01-0.91-9.11-2.74c-2.1-1.83-3.14-4.73-3.14-8.7V37.96c0-0.54,0.21-0.95,0.65-1.25
	c0.43-0.29,0.86-0.44,1.29-0.44c0.54,0,1.01,0.15,1.41,0.44c0.4,0.3,0.6,0.71,0.6,1.25v16.76h10.72c0.43,0,0.79,0.16,1.09,0.48
	c0.29,0.32,0.44,0.75,0.44,1.29c0,0.43-0.15,0.82-0.44,1.17c-0.3,0.35-0.66,0.52-1.09,0.52H40.18v23.13c0,2.79,0.63,4.78,1.89,5.96
	c1.26,1.18,3.4,1.77,6.41,1.77h2.01c0.59,0,1.05,0.18,1.37,0.52c0.32,0.35,0.48,0.79,0.48,1.33c0,0.48-0.16,0.91-0.48,1.29
	c-0.32,0.38-0.78,0.56-1.37,0.56H48.48z"/>
<path class="st0" d="M73.78,93.24c-3.28,0-6.17-0.62-8.66-1.85c-2.5-1.23-4.47-2.97-5.92-5.2c-1.45-2.23-2.18-4.85-2.18-7.86v-9.59
	c0-2.63,0.69-5.05,2.05-7.25c1.37-2.2,3.17-3.96,5.4-5.28c2.23-1.32,4.69-1.97,7.37-1.97c2.63,0,5.05,0.63,7.25,1.89
	c2.2,1.26,3.99,2.98,5.36,5.16s2.06,4.69,2.06,7.53c0,1.99-0.34,3.42-1.01,4.31c-0.67,0.89-1.52,1.42-2.54,1.61
	c-1.02,0.19-2.12,0.28-3.3,0.28h-18.7v3.38c0,3.44,1.23,6.17,3.71,8.18c2.47,2.01,5.56,3.02,9.27,3.02c2.2,0,3.89-0.27,5.08-0.81
	c1.18-0.54,2.1-1.07,2.74-1.61c0.65-0.54,1.24-0.81,1.77-0.81c0.38,0,0.7,0.11,0.97,0.32c0.27,0.22,0.48,0.47,0.64,0.77
	c0.16,0.3,0.24,0.58,0.24,0.85c0,0.54-0.47,1.21-1.41,2.01c-0.94,0.81-2.27,1.49-3.99,2.05C78.26,92.96,76.2,93.24,73.78,93.24z
	 M60.97,71.73h17.16c1.83,0,3.03-0.19,3.63-0.56c0.59-0.38,0.89-1.15,0.89-2.34c0-1.83-0.44-3.59-1.33-5.28
	c-0.89-1.69-2.15-3.07-3.79-4.15c-1.64-1.07-3.53-1.61-5.68-1.61c-2.04,0-3.88,0.48-5.52,1.45c-1.64,0.97-2.94,2.26-3.91,3.87
	c-0.97,1.61-1.45,3.38-1.45,5.32V71.73z"/>
<path class="st0" d="M108.59,93.24c-3.44,0-6.27-0.64-8.5-1.93c-2.23-1.29-3.9-3.06-5-5.32c-1.1-2.26-1.65-4.81-1.65-7.66v-9.19
	c0-2.79,0.54-5.33,1.61-7.62c1.07-2.28,2.74-4.07,5-5.36s5.1-1.93,8.54-1.93c2.2,0,4.12,0.28,5.76,0.85
	c1.64,0.56,2.91,1.22,3.83,1.97c0.91,0.75,1.37,1.45,1.37,2.1c0,0.27-0.09,0.56-0.28,0.89c-0.19,0.32-0.42,0.58-0.68,0.77
	c-0.27,0.19-0.56,0.28-0.89,0.28c-0.48,0-1.04-0.27-1.65-0.81c-0.62-0.54-1.48-1.06-2.58-1.57c-1.1-0.51-2.67-0.77-4.71-0.77
	c-3.71,0-6.53,1.01-8.46,3.02s-2.9,4.74-2.9,8.18v9.19c0,3.44,0.97,6.17,2.9,8.18s4.78,3.02,8.54,3.02c2.15,0,3.8-0.27,4.96-0.81
	c1.15-0.54,2.04-1.07,2.66-1.61c0.62-0.54,1.19-0.81,1.73-0.81c0.38,0,0.69,0.11,0.93,0.32c0.24,0.22,0.46,0.46,0.65,0.73
	c0.19,0.27,0.28,0.56,0.28,0.89c0,0.59-0.47,1.29-1.41,2.1c-0.94,0.81-2.26,1.49-3.95,2.05C112.98,92.96,110.95,93.24,108.59,93.24z
	"/>
<path class="st0" d="M164.11,92.76c-0.54,0-0.99-0.17-1.37-0.52c-0.38-0.35-0.56-0.74-0.56-1.17V56.33c0-0.48,0.19-0.87,0.56-1.17
	c0.38-0.29,0.83-0.44,1.37-0.44c0.59,0,1.06,0.15,1.41,0.44c0.35,0.3,0.52,0.69,0.52,1.17v4.03c0.91-1.56,2.27-2.97,4.07-4.23
	c1.8-1.26,4.04-1.89,6.73-1.89c2.63,0,5.04,0.66,7.21,1.97c2.18,1.32,3.92,3.09,5.24,5.32c1.32,2.23,1.97,4.71,1.97,7.45v22.08
	c0,0.54-0.2,0.95-0.6,1.25c-0.4,0.3-0.87,0.44-1.41,0.44c-0.43,0-0.86-0.15-1.29-0.44c-0.43-0.29-0.64-0.71-0.64-1.25V68.99
	c0-1.88-0.5-3.65-1.49-5.32c-0.99-1.66-2.3-3.03-3.91-4.11c-1.61-1.07-3.41-1.61-5.4-1.61c-1.72,0-3.37,0.44-4.96,1.33
	c-1.58,0.89-2.89,2.15-3.91,3.79c-1.02,1.64-1.53,3.61-1.53,5.92v22.08c0,0.43-0.19,0.82-0.56,1.17
	C165.19,92.58,164.7,92.76,164.11,92.76z"/>
<path class="st0" d="M216.82,93.24c-3.28,0-6.17-0.62-8.66-1.85c-2.5-1.23-4.47-2.97-5.92-5.2c-1.45-2.23-2.18-4.85-2.18-7.86v-9.59
	c0-2.63,0.69-5.05,2.05-7.25c1.37-2.2,3.17-3.96,5.4-5.28c2.23-1.32,4.69-1.97,7.37-1.97c2.63,0,5.05,0.63,7.25,1.89
	c2.2,1.26,3.99,2.98,5.36,5.16s2.06,4.69,2.06,7.53c0,1.99-0.34,3.42-1.01,4.31c-0.67,0.89-1.52,1.42-2.54,1.61
	c-1.02,0.19-2.12,0.28-3.3,0.28H204v3.38c0,3.44,1.23,6.17,3.71,8.18c2.47,2.01,5.56,3.02,9.27,3.02c2.2,0,3.89-0.27,5.08-0.81
	c1.18-0.54,2.1-1.07,2.74-1.61c0.65-0.54,1.24-0.81,1.77-0.81c0.38,0,0.7,0.11,0.97,0.32c0.27,0.22,0.48,0.47,0.64,0.77
	c0.16,0.3,0.24,0.58,0.24,0.85c0,0.54-0.47,1.21-1.41,2.01c-0.94,0.81-2.27,1.49-3.99,2.05C221.3,92.96,219.23,93.24,216.82,93.24z
	 M204,71.73h17.16c1.83,0,3.03-0.19,3.63-0.56c0.59-0.38,0.89-1.15,0.89-2.34c0-1.83-0.44-3.59-1.33-5.28
	c-0.89-1.69-2.15-3.07-3.79-4.15c-1.64-1.07-3.53-1.61-5.68-1.61c-2.04,0-3.88,0.48-5.52,1.45c-1.64,0.97-2.94,2.26-3.91,3.87
	c-0.97,1.61-1.45,3.38-1.45,5.32V71.73z"/>
<path class="st0" d="M250.9,111.7c-3.12,0-5.88-0.44-8.3-1.33c-2.42-0.89-4.3-2.11-5.64-3.67c-1.34-1.56-2.01-3.41-2.01-5.56
	c0-2.42,0.72-4.34,2.18-5.76c1.45-1.42,3.09-2.46,4.92-3.1c-1.4-0.48-2.53-1.13-3.38-1.93c-0.86-0.81-1.29-2.04-1.29-3.71
	c0-1.5,0.36-2.69,1.09-3.55c0.73-0.86,1.68-1.58,2.86-2.18c-1.4-1.18-2.46-2.65-3.18-4.39c-0.73-1.75-1.09-3.67-1.09-5.76v-3.3
	c0-2.58,0.55-4.86,1.65-6.85c1.1-1.99,2.66-3.55,4.67-4.67c2.01-1.13,4.36-1.69,7.05-1.69c1.93,0,3.71,0.31,5.32,0.93
	c1.61,0.62,3.01,1.52,4.19,2.7c0.75-1.5,1.68-2.71,2.78-3.63c1.1-0.91,2.14-1.37,3.1-1.37c0.7,0,1.21,0.19,1.53,0.56
	c0.32,0.38,0.48,0.81,0.48,1.29c0,0.48-0.13,0.86-0.4,1.13c-0.27,0.27-0.62,0.43-1.05,0.48c-0.64,0.05-1.4,0.32-2.26,0.81
	c-0.86,0.48-1.67,1.42-2.42,2.82c0.75,0.97,1.3,2.1,1.65,3.38c0.35,1.29,0.52,2.66,0.52,4.11v3.3c0,2.53-0.56,4.81-1.69,6.85
	c-1.13,2.04-2.73,3.64-4.79,4.79c-2.07,1.16-4.42,1.73-7.05,1.73c-2.42,0-4.57-0.51-6.45-1.53c-0.7,0.38-1.34,0.82-1.93,1.33
	c-0.59,0.51-0.89,1.25-0.89,2.22c0,1.29,0.6,2.2,1.81,2.74c1.21,0.54,2.78,0.91,4.71,1.13c1.93,0.22,3.96,0.44,6.08,0.69
	c2.12,0.24,4.15,0.67,6.08,1.29c1.93,0.62,3.51,1.58,4.71,2.9c1.21,1.32,1.81,3.18,1.81,5.6c0,2.42-0.64,4.46-1.93,6.12
	c-1.29,1.67-3.09,2.93-5.4,3.79C256.65,111.27,253.96,111.7,250.9,111.7z M250.82,108.47c3.71,0,6.57-0.71,8.58-2.14
	c2.01-1.42,3.02-3.32,3.02-5.68c0-1.83-0.56-3.21-1.69-4.15c-1.13-0.94-2.55-1.61-4.27-2.01c-1.72-0.4-3.46-0.67-5.24-0.81
	c-1.77-0.13-3.3-0.28-4.59-0.44c-2.04,0.59-3.86,1.46-5.44,2.62c-1.59,1.15-2.38,2.78-2.38,4.88c0,2.31,1.06,4.18,3.18,5.6
	C244.12,107.76,247.06,108.47,250.82,108.47z M250.5,80.83c2.95,0,5.28-0.95,6.97-2.86c1.69-1.91,2.54-4.31,2.54-7.21v-3.3
	c0-2.85-0.85-5.21-2.54-7.09c-1.69-1.88-4.04-2.82-7.05-2.82c-3.01,0-5.35,0.94-7.01,2.82c-1.67,1.88-2.5,4.24-2.5,7.09v3.22
	c0,2.85,0.83,5.25,2.5,7.21C245.07,79.85,247.44,80.83,250.5,80.83z"/>
<path class="st0" d="M287.33,93.24c-2.58,0-5-0.7-7.25-2.1c-2.26-1.4-4.07-3.22-5.44-5.48c-1.37-2.26-2.06-4.7-2.06-7.33v-9.35
	c0-2.63,0.67-5.08,2.01-7.33c1.34-2.26,3.14-4.06,5.4-5.4c2.26-1.34,4.7-2.01,7.33-2.01c2.69,0,5.14,0.66,7.37,1.97
	c2.23,1.32,4.03,3.09,5.4,5.32c1.37,2.23,2.05,4.71,2.05,7.45v9.35c0,2.58-0.69,5.01-2.05,7.29c-1.37,2.28-3.17,4.12-5.4,5.52
	C292.47,92.54,290.01,93.24,287.33,93.24z M287.33,89.54c2.04,0,3.87-0.54,5.48-1.61c1.61-1.07,2.91-2.47,3.91-4.19
	c0.99-1.72,1.49-3.52,1.49-5.4v-9.35c0-1.88-0.48-3.65-1.45-5.32c-0.97-1.66-2.27-3.03-3.91-4.11c-1.64-1.07-3.48-1.61-5.52-1.61
	c-2.04,0-3.87,0.54-5.48,1.61c-1.61,1.08-2.9,2.44-3.87,4.11c-0.97,1.67-1.45,3.44-1.45,5.32v9.35c0,1.88,0.48,3.68,1.45,5.4
	c0.97,1.72,2.27,3.12,3.91,4.19C283.52,89,285.34,89.54,287.33,89.54z"/>
<path class="st0" d="M325.04,93.24c-3.44,0-6.27-0.64-8.5-1.93c-2.23-1.29-3.9-3.06-5-5.32c-1.1-2.26-1.65-4.81-1.65-7.66v-9.19
	c0-2.79,0.54-5.33,1.61-7.62c1.07-2.28,2.74-4.07,5-5.36c2.26-1.29,5.1-1.93,8.54-1.93c2.2,0,4.12,0.28,5.76,0.85
	c1.64,0.56,2.91,1.22,3.83,1.97c0.91,0.75,1.37,1.45,1.37,2.1c0,0.27-0.09,0.56-0.28,0.89c-0.19,0.32-0.42,0.58-0.69,0.77
	c-0.27,0.19-0.56,0.28-0.89,0.28c-0.48,0-1.04-0.27-1.65-0.81c-0.62-0.54-1.48-1.06-2.58-1.57c-1.1-0.51-2.67-0.77-4.71-0.77
	c-3.71,0-6.53,1.01-8.46,3.02c-1.93,2.01-2.9,4.74-2.9,8.18v9.19c0,3.44,0.97,6.17,2.9,8.18c1.93,2.01,4.78,3.02,8.54,3.02
	c2.15,0,3.8-0.27,4.96-0.81c1.16-0.54,2.04-1.07,2.66-1.61c0.62-0.54,1.19-0.81,1.73-0.81c0.38,0,0.68,0.11,0.93,0.32
	c0.24,0.22,0.46,0.46,0.64,0.73c0.19,0.27,0.28,0.56,0.28,0.89c0,0.59-0.47,1.29-1.41,2.1c-0.94,0.81-2.26,1.49-3.95,2.05
	C329.43,92.96,327.4,93.24,325.04,93.24z"/>
<path class="st0" d="M345.99,42.72c-0.81,0-1.52-0.29-2.14-0.89c-0.62-0.59-0.93-1.29-0.93-2.1c0-0.81,0.31-1.48,0.93-2.01
	c0.62-0.54,1.33-0.81,2.14-0.81c0.86,0,1.57,0.27,2.13,0.81c0.56,0.54,0.85,1.21,0.85,2.01c0,0.81-0.28,1.5-0.85,2.1
	C347.56,42.42,346.85,42.72,345.99,42.72z M345.91,92.76c-0.54,0-0.99-0.17-1.37-0.52c-0.38-0.35-0.56-0.74-0.56-1.17V56.33
	c0-0.48,0.19-0.87,0.56-1.17c0.38-0.29,0.83-0.44,1.37-0.44c0.59,0,1.07,0.15,1.45,0.44c0.38,0.3,0.56,0.69,0.56,1.17v34.73
	c0,0.43-0.19,0.82-0.56,1.17C346.98,92.58,346.5,92.76,345.91,92.76z"/>
<path class="st0" d="M371.78,93.24c-2.58,0-5-0.7-7.25-2.1c-2.26-1.4-4.07-3.22-5.44-5.48c-1.37-2.26-2.06-4.7-2.06-7.33v-9.35
	c0-2.63,0.67-5.08,2.01-7.33c1.34-2.26,3.14-4.06,5.4-5.4c2.26-1.34,4.7-2.01,7.33-2.01c2.69,0,5.14,0.66,7.37,1.97
	c2.23,1.32,4.03,3.09,5.4,5.32c1.37,2.23,2.05,4.71,2.05,7.45v9.35c0,2.58-0.69,5.01-2.05,7.29c-1.37,2.28-3.17,4.12-5.4,5.52
	C376.92,92.54,374.46,93.24,371.78,93.24z M371.78,89.54c2.04,0,3.87-0.54,5.48-1.61c1.61-1.07,2.91-2.47,3.91-4.19
	c0.99-1.72,1.49-3.52,1.49-5.4v-9.35c0-1.88-0.48-3.65-1.45-5.32c-0.97-1.66-2.27-3.03-3.91-4.11c-1.64-1.07-3.48-1.61-5.52-1.61
	c-2.04,0-3.87,0.54-5.48,1.61c-1.61,1.08-2.9,2.44-3.87,4.11c-0.97,1.67-1.45,3.44-1.45,5.32v9.35c0,1.88,0.48,3.68,1.45,5.4
	c0.97,1.72,2.27,3.12,3.91,4.19C367.98,89,369.79,89.54,371.78,89.54z"/>
<path class="st0" d="M405.46,93.24c-2.47,0-4.61-0.31-6.41-0.93c-1.8-0.62-3.21-1.34-4.23-2.18c-1.02-0.83-1.53-1.62-1.53-2.38
	c0-0.27,0.07-0.54,0.2-0.81c0.13-0.27,0.32-0.51,0.56-0.73c0.24-0.21,0.47-0.32,0.68-0.32c0.54,0,1.15,0.31,1.85,0.93
	c0.7,0.62,1.72,1.25,3.06,1.89c1.34,0.64,3.25,0.97,5.72,0.97c3.22,0,5.51-0.62,6.85-1.85c1.34-1.24,2.01-2.69,2.01-4.35
	c0-1.93-0.47-3.45-1.41-4.55c-0.94-1.1-2.19-1.95-3.75-2.54c-1.56-0.59-3.18-1.11-4.88-1.57c-1.69-0.46-3.32-1.03-4.88-1.73
	c-1.56-0.7-2.82-1.69-3.79-2.98c-0.97-1.29-1.45-3.03-1.45-5.24c0-1.61,0.43-3.25,1.29-4.92c0.86-1.66,2.19-3.03,3.99-4.11
	c1.8-1.07,4.15-1.61,7.05-1.61c1.72,0,3.36,0.17,4.92,0.52c1.56,0.35,2.85,0.81,3.87,1.37c1.02,0.56,1.53,1.14,1.53,1.73
	c0,0.22-0.08,0.5-0.24,0.85c-0.16,0.35-0.36,0.64-0.6,0.89c-0.24,0.24-0.55,0.36-0.93,0.36c-0.38,0-0.91-0.19-1.61-0.56
	c-0.7-0.38-1.61-0.74-2.74-1.09c-1.13-0.35-2.5-0.52-4.11-0.52c-2.1,0-3.78,0.38-5.04,1.13c-1.26,0.75-2.18,1.67-2.74,2.74
	c-0.56,1.08-0.85,2.12-0.85,3.14c0,1.61,0.48,2.87,1.45,3.79c0.97,0.91,2.22,1.63,3.75,2.14c1.53,0.51,3.16,1.01,4.88,1.49
	c1.72,0.48,3.34,1.13,4.88,1.93c1.53,0.81,2.78,1.92,3.75,3.34c0.97,1.42,1.45,3.37,1.45,5.84c0,3.01-1.1,5.41-3.3,7.21
	C412.53,92.34,409.44,93.24,405.46,93.24z"/>
<g>
	<path class="st1" d="M111.91,139.16c-0.21,0-0.4-0.04-0.57-0.12c-0.17-0.08-0.27-0.2-0.32-0.35l-6.27-17.98
		c-0.02-0.05-0.03-0.11-0.03-0.18c0-0.12,0.04-0.22,0.13-0.3s0.2-0.14,0.33-0.18c0.14-0.04,0.27-0.06,0.4-0.06
		c0.17,0,0.32,0.04,0.46,0.1c0.14,0.07,0.23,0.17,0.27,0.29l5.58,16.44l3.26-9.86c0.08-0.21,0.21-0.35,0.36-0.42
		c0.16-0.07,0.33-0.1,0.52-0.1c0.23,0,0.42,0.04,0.55,0.1c0.14,0.07,0.24,0.21,0.3,0.42l3.33,9.86l5.55-16.44
		c0.06-0.12,0.16-0.22,0.3-0.29c0.14-0.07,0.28-0.1,0.43-0.1c0.15,0,0.29,0.02,0.41,0.06c0.13,0.04,0.23,0.1,0.32,0.18
		c0.08,0.08,0.13,0.18,0.13,0.3c0,0.07-0.01,0.13-0.03,0.18l-6.21,17.98c-0.06,0.16-0.17,0.27-0.33,0.35
		c-0.16,0.08-0.35,0.12-0.59,0.12c-0.19,0-0.37-0.04-0.54-0.12s-0.27-0.2-0.32-0.35l-3.3-9.73l-3.23,9.73
		c-0.04,0.16-0.15,0.27-0.32,0.35C112.31,139.12,112.12,139.16,111.91,139.16z"/>
	<path class="st1" d="M134.69,139.16c-1.29,0-2.42-0.2-3.41-0.6c-0.98-0.4-1.76-0.96-2.33-1.68c-0.57-0.72-0.86-1.56-0.86-2.54v-3.1
		c0-0.85,0.27-1.63,0.81-2.34c0.54-0.71,1.25-1.28,2.12-1.7s1.84-0.64,2.9-0.64c1.03,0,1.99,0.2,2.85,0.61
		c0.87,0.41,1.57,0.96,2.11,1.66c0.54,0.7,0.81,1.51,0.81,2.43c0,0.64-0.13,1.11-0.4,1.39s-0.6,0.46-1,0.52
		c-0.4,0.06-0.83,0.09-1.3,0.09h-7.35v1.09c0,1.11,0.49,1.99,1.46,2.64c0.97,0.65,2.19,0.98,3.64,0.98c0.87,0,1.53-0.09,2-0.26
		c0.46-0.17,0.82-0.35,1.08-0.52c0.25-0.17,0.49-0.26,0.7-0.26c0.15,0,0.27,0.04,0.38,0.1c0.11,0.07,0.19,0.15,0.25,0.25
		c0.06,0.1,0.1,0.19,0.1,0.27c0,0.17-0.19,0.39-0.55,0.65c-0.37,0.26-0.89,0.48-1.57,0.66
		C136.46,139.07,135.65,139.16,134.69,139.16z M129.66,132.21h6.75c0.72,0,1.19-0.06,1.43-0.18c0.23-0.12,0.35-0.37,0.35-0.75
		c0-0.59-0.17-1.16-0.52-1.7c-0.35-0.55-0.85-0.99-1.49-1.34c-0.64-0.35-1.39-0.52-2.23-0.52c-0.8,0-1.53,0.16-2.17,0.47
		c-0.64,0.31-1.16,0.73-1.54,1.25c-0.38,0.52-0.57,1.09-0.57,1.72V132.21z"/>
	<path class="st1" d="M148.83,139.16c-0.99,0-1.88-0.2-2.65-0.59c-0.77-0.39-1.34-0.85-1.7-1.39v1.27c0,0.14-0.07,0.26-0.21,0.38
		c-0.14,0.11-0.32,0.17-0.55,0.17c-0.21,0-0.39-0.06-0.54-0.17c-0.15-0.11-0.22-0.24-0.22-0.38v-18.83c0-0.17,0.07-0.31,0.22-0.4
		c0.15-0.09,0.33-0.14,0.54-0.14c0.23,0,0.42,0.05,0.57,0.14c0.15,0.1,0.22,0.23,0.22,0.4v8.92c0.36-0.5,0.89-0.96,1.6-1.37
		c0.71-0.41,1.58-0.61,2.61-0.61s1.99,0.21,2.85,0.64s1.56,1,2.08,1.72c0.52,0.72,0.78,1.52,0.78,2.41v3.02
		c0,0.83-0.26,1.62-0.78,2.35c-0.52,0.74-1.2,1.33-2.06,1.78C150.74,138.93,149.82,139.16,148.83,139.16z M148.67,137.96
		c0.76,0,1.46-0.17,2.09-0.52c0.63-0.35,1.15-0.8,1.54-1.35c0.39-0.55,0.59-1.14,0.59-1.74v-3.02c0-0.61-0.2-1.18-0.59-1.72
		c-0.39-0.54-0.9-0.98-1.54-1.33c-0.63-0.35-1.34-0.52-2.12-0.52c-0.68,0-1.33,0.14-1.96,0.43c-0.63,0.29-1.15,0.69-1.55,1.22
		c-0.4,0.53-0.6,1.17-0.6,1.91v3.9c0,0.28,0.19,0.63,0.55,1.07c0.37,0.43,0.87,0.82,1.49,1.16
		C147.18,137.79,147.89,137.96,148.67,137.96z"/>
	<path class="st1" d="M167.18,133.77c-0.59,0-1.13-0.12-1.62-0.36c-0.49-0.24-0.87-0.56-1.16-0.95s-0.43-0.81-0.43-1.26
		c0-0.45,0.14-0.87,0.43-1.26s0.67-0.7,1.16-0.94c0.49-0.23,1.02-0.35,1.62-0.35c0.57,0,1.1,0.12,1.58,0.35
		c0.49,0.23,0.87,0.55,1.16,0.94s0.43,0.81,0.43,1.26c0,0.45-0.14,0.88-0.43,1.27s-0.67,0.72-1.16,0.95
		C168.27,133.66,167.75,133.77,167.18,133.77z"/>
	<path class="st1" d="M186.32,139.16c-0.21,0-0.4-0.04-0.57-0.12c-0.17-0.08-0.27-0.2-0.32-0.35l-6.27-17.98
		c-0.02-0.05-0.03-0.11-0.03-0.18c0-0.12,0.04-0.22,0.13-0.3s0.2-0.14,0.33-0.18c0.14-0.04,0.27-0.06,0.4-0.06
		c0.17,0,0.32,0.04,0.46,0.1c0.14,0.07,0.23,0.17,0.27,0.29l5.58,16.44l3.26-9.86c0.08-0.21,0.21-0.35,0.36-0.42
		c0.16-0.07,0.33-0.1,0.52-0.1c0.23,0,0.42,0.04,0.55,0.1c0.14,0.07,0.24,0.21,0.3,0.42l3.33,9.86l5.55-16.44
		c0.06-0.12,0.16-0.22,0.3-0.29c0.14-0.07,0.28-0.1,0.43-0.1c0.15,0,0.29,0.02,0.41,0.06c0.13,0.04,0.23,0.1,0.32,0.18
		c0.08,0.08,0.13,0.18,0.13,0.3c0,0.07-0.01,0.13-0.03,0.18l-6.21,17.98c-0.06,0.16-0.17,0.27-0.33,0.35
		c-0.16,0.08-0.35,0.12-0.59,0.12c-0.19,0-0.37-0.04-0.54-0.12s-0.27-0.2-0.32-0.35l-3.3-9.73l-3.23,9.73
		c-0.04,0.16-0.15,0.27-0.32,0.35C186.72,139.12,186.53,139.16,186.32,139.16z"/>
	<path class="st1" d="M209.1,139.16c-1.29,0-2.42-0.2-3.41-0.6c-0.98-0.4-1.76-0.96-2.33-1.68c-0.57-0.72-0.86-1.56-0.86-2.54v-3.1
		c0-0.85,0.27-1.63,0.81-2.34c0.54-0.71,1.25-1.28,2.12-1.7s1.84-0.64,2.9-0.64c1.03,0,1.99,0.2,2.85,0.61
		c0.87,0.41,1.57,0.96,2.11,1.66c0.54,0.7,0.81,1.51,0.81,2.43c0,0.64-0.13,1.11-0.4,1.39s-0.6,0.46-1,0.52
		c-0.4,0.06-0.83,0.09-1.3,0.09h-7.35v1.09c0,1.11,0.49,1.99,1.46,2.64c0.97,0.65,2.19,0.98,3.64,0.98c0.87,0,1.53-0.09,2-0.26
		c0.46-0.17,0.82-0.35,1.08-0.52c0.25-0.17,0.49-0.26,0.7-0.26c0.15,0,0.27,0.04,0.38,0.1c0.11,0.07,0.19,0.15,0.25,0.25
		c0.06,0.1,0.1,0.19,0.1,0.27c0,0.17-0.19,0.39-0.55,0.65c-0.37,0.26-0.89,0.48-1.57,0.66C210.86,139.07,210.05,139.16,209.1,139.16
		z M204.06,132.21h6.75c0.72,0,1.19-0.06,1.43-0.18c0.23-0.12,0.35-0.37,0.35-0.75c0-0.59-0.17-1.16-0.52-1.7
		c-0.35-0.55-0.85-0.99-1.49-1.34c-0.64-0.35-1.39-0.52-2.23-0.52c-0.8,0-1.53,0.16-2.17,0.47c-0.64,0.31-1.16,0.73-1.54,1.25
		c-0.38,0.52-0.57,1.09-0.57,1.72V132.21z"/>
	<path class="st1" d="M223.23,139.16c-0.99,0-1.88-0.2-2.65-0.59c-0.77-0.39-1.34-0.85-1.7-1.39v1.27c0,0.14-0.07,0.26-0.21,0.38
		c-0.14,0.11-0.32,0.17-0.55,0.17c-0.21,0-0.39-0.06-0.54-0.17c-0.15-0.11-0.22-0.24-0.22-0.38v-18.83c0-0.17,0.07-0.31,0.22-0.4
		c0.15-0.09,0.33-0.14,0.54-0.14c0.23,0,0.42,0.05,0.57,0.14c0.15,0.1,0.22,0.23,0.22,0.4v8.92c0.36-0.5,0.89-0.96,1.6-1.37
		c0.71-0.41,1.58-0.61,2.61-0.61s1.99,0.21,2.85,0.64s1.56,1,2.08,1.72c0.52,0.72,0.78,1.52,0.78,2.41v3.02
		c0,0.83-0.26,1.62-0.78,2.35c-0.52,0.74-1.2,1.33-2.06,1.78C225.15,138.93,224.23,139.16,223.23,139.16z M223.08,137.96
		c0.76,0,1.46-0.17,2.09-0.52c0.63-0.35,1.15-0.8,1.54-1.35c0.39-0.55,0.59-1.14,0.59-1.74v-3.02c0-0.61-0.2-1.18-0.59-1.72
		c-0.39-0.54-0.9-0.98-1.54-1.33c-0.63-0.35-1.34-0.52-2.12-0.52c-0.68,0-1.33,0.14-1.96,0.43c-0.63,0.29-1.15,0.69-1.55,1.22
		c-0.4,0.53-0.6,1.17-0.6,1.91v3.9c0,0.28,0.19,0.63,0.55,1.07c0.37,0.43,0.87,0.82,1.49,1.16
		C221.59,137.79,222.29,137.96,223.08,137.96z"/>
	<path class="st1" d="M238.29,139c-0.13,0-0.26-0.03-0.4-0.08c-0.14-0.05-0.25-0.12-0.33-0.19c-0.08-0.08-0.13-0.18-0.13-0.3
		c0-0.05,0.01-0.1,0.03-0.16l6.75-17.98c0.06-0.17,0.18-0.29,0.35-0.36c0.17-0.07,0.35-0.1,0.54-0.1c0.19,0,0.38,0.04,0.55,0.12
		c0.18,0.08,0.3,0.2,0.36,0.35l6.69,17.98c0.02,0.05,0.03,0.1,0.03,0.16c0,0.09-0.05,0.18-0.14,0.27c-0.09,0.1-0.21,0.17-0.35,0.22
		c-0.14,0.05-0.28,0.08-0.43,0.08c-0.15,0-0.28-0.03-0.4-0.09s-0.2-0.16-0.24-0.3l-1.55-4.14h-9.13l-1.52,4.14
		c-0.04,0.14-0.13,0.24-0.25,0.3C238.6,138.97,238.45,139,238.29,139z M240.95,133.28h8.24l-4.09-11.11L240.95,133.28z"/>
	<path class="st1" d="M256.32,145.12c-0.21,0-0.39-0.06-0.54-0.18c-0.15-0.12-0.22-0.25-0.22-0.39v-17.3c0-0.16,0.07-0.28,0.22-0.38
		c0.15-0.1,0.33-0.14,0.54-0.14c0.23,0,0.42,0.05,0.55,0.14c0.14,0.1,0.21,0.22,0.21,0.38v1.3c0.36-0.5,0.9-0.96,1.62-1.37
		c0.72-0.41,1.6-0.61,2.63-0.61s1.99,0.21,2.85,0.64c0.87,0.42,1.56,1,2.08,1.72c0.52,0.72,0.78,1.52,0.78,2.41v3.02
		c0,0.83-0.26,1.62-0.78,2.35c-0.52,0.74-1.21,1.33-2.06,1.78c-0.86,0.45-1.78,0.68-2.77,0.68c-0.97,0-1.84-0.2-2.62-0.59
		s-1.34-0.85-1.7-1.39v7.36c0,0.14-0.07,0.27-0.22,0.39C256.74,145.05,256.55,145.12,256.32,145.12z M261.26,137.96
		c0.76,0,1.46-0.17,2.09-0.52c0.63-0.35,1.15-0.8,1.54-1.35c0.39-0.55,0.59-1.14,0.59-1.74v-3.02c0-0.61-0.2-1.18-0.59-1.72
		s-0.9-0.98-1.54-1.33c-0.63-0.35-1.34-0.52-2.12-0.52c-0.68,0-1.33,0.14-1.96,0.43c-0.63,0.29-1.15,0.69-1.55,1.22
		c-0.4,0.53-0.6,1.17-0.6,1.91v3.9c0,0.28,0.18,0.63,0.54,1.07c0.36,0.43,0.86,0.82,1.49,1.16
		C259.77,137.79,260.48,137.96,261.26,137.96z"/>
	<path class="st1" d="M271.4,145.12c-0.21,0-0.39-0.06-0.54-0.18c-0.15-0.12-0.22-0.25-0.22-0.39v-17.3c0-0.16,0.07-0.28,0.22-0.38
		c0.15-0.1,0.33-0.14,0.54-0.14c0.23,0,0.42,0.05,0.55,0.14c0.14,0.1,0.21,0.22,0.21,0.38v1.3c0.36-0.5,0.9-0.96,1.62-1.37
		c0.72-0.41,1.59-0.61,2.63-0.61c1.03,0,1.99,0.21,2.85,0.64s1.56,1,2.08,1.72c0.52,0.72,0.78,1.52,0.78,2.41v3.02
		c0,0.83-0.26,1.62-0.78,2.35c-0.52,0.74-1.21,1.33-2.06,1.78c-0.86,0.45-1.78,0.68-2.77,0.68c-0.97,0-1.84-0.2-2.61-0.59
		c-0.77-0.39-1.34-0.85-1.7-1.39v7.36c0,0.14-0.07,0.27-0.22,0.39C271.82,145.05,271.63,145.12,271.4,145.12z M276.35,137.96
		c0.76,0,1.46-0.17,2.09-0.52c0.63-0.35,1.15-0.8,1.54-1.35c0.39-0.55,0.59-1.14,0.59-1.74v-3.02c0-0.61-0.2-1.18-0.59-1.72
		s-0.9-0.98-1.54-1.33c-0.63-0.35-1.34-0.52-2.12-0.52c-0.68,0-1.33,0.14-1.96,0.43c-0.63,0.29-1.15,0.69-1.55,1.22
		c-0.4,0.53-0.6,1.17-0.6,1.91v3.9c0,0.28,0.18,0.63,0.54,1.07c0.36,0.43,0.86,0.82,1.49,1.16
		C274.86,137.79,275.56,137.96,276.35,137.96z"/>
	<path class="st1" d="M289.56,139.16c-0.97,0-1.81-0.1-2.52-0.3s-1.26-0.43-1.66-0.7c-0.4-0.27-0.6-0.52-0.6-0.77
		c0-0.09,0.03-0.17,0.08-0.26c0.05-0.09,0.13-0.16,0.22-0.23c0.1-0.07,0.19-0.1,0.27-0.1c0.21,0,0.45,0.1,0.73,0.3
		c0.27,0.2,0.68,0.4,1.2,0.61c0.53,0.21,1.28,0.31,2.25,0.31c1.27,0,2.17-0.2,2.69-0.6c0.53-0.4,0.79-0.87,0.79-1.4
		c0-0.62-0.18-1.11-0.55-1.47c-0.37-0.35-0.86-0.63-1.47-0.82c-0.61-0.19-1.25-0.36-1.92-0.51c-0.67-0.15-1.3-0.33-1.92-0.56
		c-0.61-0.23-1.11-0.55-1.49-0.96c-0.38-0.42-0.57-0.98-0.57-1.69c0-0.52,0.17-1.05,0.51-1.59c0.34-0.54,0.86-0.98,1.57-1.33
		c0.71-0.35,1.63-0.52,2.77-0.52c0.68,0,1.32,0.06,1.93,0.17c0.61,0.11,1.12,0.26,1.52,0.44c0.4,0.18,0.6,0.37,0.6,0.56
		c0,0.07-0.03,0.16-0.09,0.27c-0.06,0.11-0.14,0.21-0.24,0.29c-0.09,0.08-0.22,0.12-0.36,0.12s-0.36-0.06-0.63-0.18
		c-0.27-0.12-0.63-0.24-1.08-0.35s-0.98-0.17-1.62-0.17c-0.82,0-1.48,0.12-1.98,0.36c-0.5,0.24-0.86,0.54-1.08,0.88
		c-0.22,0.35-0.33,0.69-0.33,1.01c0,0.52,0.19,0.93,0.57,1.22c0.38,0.3,0.87,0.52,1.47,0.69c0.6,0.17,1.24,0.33,1.92,0.48
		c0.68,0.16,1.32,0.36,1.92,0.62c0.6,0.26,1.09,0.62,1.47,1.08c0.38,0.46,0.57,1.09,0.57,1.89c0,0.97-0.43,1.75-1.3,2.33
		S291.12,139.16,289.56,139.16z"/>
	<path class="st1" d="M310.32,139.26c-1.5,0-2.78-0.25-3.83-0.75c-1.06-0.5-1.86-1.17-2.42-2c-0.56-0.83-0.84-1.74-0.84-2.73
		c0-0.9,0.22-1.69,0.65-2.37s0.99-1.25,1.66-1.72c0.68-0.47,1.37-0.82,2.09-1.07c-0.66-0.64-1.26-1.33-1.82-2.07
		c-0.56-0.74-0.84-1.63-0.84-2.67c0-0.92,0.25-1.7,0.76-2.35c0.51-0.65,1.18-1.14,2.01-1.48c0.83-0.34,1.75-0.51,2.74-0.51
		c1.12,0,2.04,0.16,2.76,0.47c0.72,0.31,1.26,0.65,1.62,1.03s0.54,0.66,0.54,0.87c0,0.17-0.07,0.32-0.22,0.43
		c-0.15,0.11-0.33,0.17-0.54,0.17c-0.17,0-0.34-0.09-0.51-0.27c-0.17-0.18-0.39-0.4-0.67-0.65c-0.27-0.25-0.64-0.47-1.09-0.65
		c-0.46-0.18-1.05-0.27-1.79-0.27c-1.2,0-2.15,0.3-2.85,0.91s-1.05,1.41-1.05,2.42c0,0.62,0.14,1.2,0.41,1.72
		c0.27,0.52,0.63,1.01,1.08,1.48c0.44,0.47,0.91,0.93,1.39,1.38l6.78,6.14c0.46-0.88,0.77-1.79,0.9-2.73s0.23-1.72,0.27-2.34
		c0-0.23,0.05-0.39,0.16-0.48c0.11-0.09,0.3-0.14,0.57-0.14c0.23,0,0.4,0.06,0.51,0.18c0.11,0.12,0.16,0.31,0.16,0.57
		c0,0.33-0.04,0.82-0.11,1.46s-0.22,1.35-0.43,2.12s-0.55,1.53-1.01,2.28l3.01,2.65c0.04,0.07,0.08,0.13,0.11,0.2
		c0.03,0.06,0.05,0.11,0.05,0.14c0,0.16-0.07,0.29-0.22,0.39c-0.15,0.1-0.31,0.16-0.48,0.16c-0.08,0-0.16-0.01-0.24-0.04
		c-0.07-0.03-0.15-0.07-0.24-0.14l-2.73-2.39c-0.63,0.76-1.46,1.4-2.49,1.91S311.84,139.26,310.32,139.26z M310.54,138.04
		c1.29,0,2.33-0.22,3.14-0.65c0.8-0.43,1.45-0.99,1.93-1.67l-7.07-6.24c-0.51,0.23-1.05,0.51-1.62,0.86
		c-0.57,0.35-1.06,0.79-1.47,1.31c-0.41,0.53-0.62,1.19-0.62,1.99c0,0.76,0.22,1.48,0.67,2.16c0.44,0.68,1.09,1.22,1.95,1.63
		C308.3,137.84,309.33,138.04,310.54,138.04z"/>
	<path class="st1" d="M330.75,139c-0.21,0-0.4-0.05-0.55-0.14c-0.16-0.1-0.24-0.23-0.24-0.4v-17.95c0-0.14,0.06-0.26,0.19-0.35
		c0.13-0.1,0.29-0.15,0.51-0.17h5.74c1.18,0,2.25,0.18,3.22,0.53c0.96,0.36,1.72,0.93,2.28,1.73c0.56,0.8,0.84,1.86,0.84,3.17v0.29
		c0,1.32-0.28,2.38-0.84,3.17c-0.56,0.8-1.33,1.38-2.3,1.74c-0.97,0.36-2.05,0.55-3.23,0.55h-4.82v7.28c0,0.17-0.08,0.31-0.25,0.4
		C331.12,138.95,330.94,139,330.75,139z M331.55,129.98h4.82c1.5,0,2.67-0.35,3.52-1.04c0.84-0.69,1.27-1.76,1.27-3.2v-0.31
		c0-1.42-0.42-2.48-1.27-3.16c-0.85-0.69-2.02-1.03-3.52-1.03h-4.82V129.98z"/>
	<path class="st1" d="M346.44,139c-0.21,0-0.39-0.06-0.54-0.17s-0.22-0.24-0.22-0.38v-11.21c0-0.16,0.07-0.28,0.22-0.38
		c0.15-0.1,0.33-0.14,0.54-0.14c0.23,0,0.42,0.05,0.55,0.14c0.14,0.1,0.21,0.22,0.21,0.38v1.33c0.25-0.35,0.58-0.67,0.98-0.98
		c0.4-0.3,0.88-0.55,1.44-0.74s1.2-0.29,1.92-0.29h1.14c0.19,0,0.35,0.06,0.47,0.17c0.13,0.11,0.19,0.26,0.19,0.43
		s-0.06,0.32-0.19,0.43c-0.13,0.11-0.29,0.17-0.47,0.17h-1.14c-0.72,0-1.41,0.15-2.08,0.46c-0.67,0.3-1.2,0.74-1.62,1.3
		c-0.41,0.56-0.62,1.24-0.62,2.04v6.89c0,0.14-0.07,0.26-0.22,0.38S346.67,139,346.44,139z"/>
	<path class="st1" d="M360.23,139.16c-1.01,0-1.96-0.23-2.85-0.68c-0.89-0.45-1.6-1.04-2.14-1.77c-0.54-0.73-0.81-1.52-0.81-2.37
		v-3.02c0-0.85,0.26-1.64,0.79-2.37s1.24-1.31,2.12-1.74c0.89-0.43,1.85-0.65,2.88-0.65c1.06,0,2.02,0.21,2.9,0.64
		c0.88,0.42,1.58,1,2.12,1.72c0.54,0.72,0.81,1.52,0.81,2.41v3.02c0,0.83-0.27,1.62-0.81,2.35c-0.54,0.74-1.25,1.33-2.12,1.78
		C362.25,138.93,361.28,139.16,360.23,139.16z M360.23,137.96c0.8,0,1.52-0.17,2.16-0.52c0.63-0.35,1.15-0.8,1.54-1.35
		c0.39-0.55,0.59-1.14,0.59-1.74v-3.02c0-0.61-0.19-1.18-0.57-1.72c-0.38-0.54-0.89-0.98-1.54-1.33c-0.64-0.35-1.37-0.52-2.17-0.52
		s-1.52,0.17-2.15,0.52c-0.63,0.35-1.14,0.79-1.52,1.33c-0.38,0.54-0.57,1.11-0.57,1.72v3.02c0,0.61,0.19,1.19,0.57,1.74
		c0.38,0.56,0.89,1.01,1.54,1.35C358.73,137.79,359.44,137.96,360.23,137.96z"/>
	<path class="st1" d="M374.68,139.16c-0.99,0-1.92-0.23-2.79-0.68c-0.87-0.45-1.56-1.04-2.08-1.78c-0.52-0.74-0.78-1.52-0.78-2.35
		v-3.02c0-0.88,0.26-1.69,0.78-2.41c0.52-0.72,1.21-1.29,2.08-1.72c0.87-0.42,1.82-0.64,2.85-0.64c1.06,0,1.94,0.2,2.65,0.61
		c0.71,0.41,1.23,0.86,1.57,1.37v-8.92c0-0.17,0.08-0.31,0.24-0.4c0.16-0.09,0.34-0.14,0.55-0.14c0.23,0,0.42,0.05,0.55,0.14
		c0.14,0.1,0.21,0.23,0.21,0.4v18.83c0,0.14-0.07,0.26-0.21,0.38s-0.32,0.17-0.55,0.17c-0.19,0-0.36-0.06-0.52-0.17
		s-0.24-0.24-0.24-0.38v-1.27c-0.32,0.54-0.87,1-1.66,1.39S375.65,139.16,374.68,139.16z M374.8,137.96c0.8,0,1.52-0.17,2.14-0.51
		c0.62-0.34,1.11-0.72,1.47-1.16c0.36-0.43,0.54-0.79,0.54-1.07v-3.9c0-0.75-0.2-1.38-0.6-1.91c-0.4-0.53-0.91-0.94-1.54-1.22
		c-0.62-0.29-1.28-0.43-1.98-0.43c-0.76,0-1.46,0.17-2.11,0.52c-0.65,0.35-1.16,0.79-1.55,1.33c-0.39,0.54-0.59,1.11-0.59,1.72v3.02
		c0,0.61,0.2,1.19,0.59,1.74c0.39,0.56,0.9,1.01,1.54,1.35C373.34,137.79,374.04,137.96,374.8,137.96z"/>
	<path class="st1" d="M390.39,139.16c-1.06,0-2.03-0.22-2.92-0.66c-0.89-0.44-1.6-1.03-2.12-1.76c-0.53-0.73-0.79-1.51-0.79-2.34
		v-7.13c0-0.14,0.08-0.26,0.24-0.38c0.16-0.11,0.34-0.17,0.55-0.17c0.21,0,0.39,0.06,0.54,0.17c0.15,0.11,0.22,0.24,0.22,0.38v7.13
		c0,0.61,0.19,1.18,0.57,1.72c0.38,0.54,0.89,0.98,1.54,1.33c0.64,0.35,1.37,0.52,2.17,0.52s1.52-0.17,2.16-0.51
		c0.63-0.34,1.14-0.78,1.52-1.33c0.38-0.55,0.57-1.12,0.57-1.73v-7.15c0-0.14,0.08-0.26,0.24-0.36s0.34-0.16,0.55-0.16
		c0.23,0,0.42,0.05,0.55,0.16c0.14,0.1,0.21,0.23,0.21,0.36v7.15c0,0.85-0.26,1.64-0.79,2.37c-0.53,0.73-1.23,1.31-2.11,1.74
		S391.45,139.16,390.39,139.16z"/>
	<path class="st1" d="M405.64,139.16c-1.35,0-2.47-0.21-3.34-0.62s-1.53-0.99-1.96-1.72s-0.65-1.55-0.65-2.47v-2.97
		c0-0.9,0.21-1.72,0.63-2.46c0.42-0.74,1.08-1.31,1.96-1.73c0.89-0.42,2.01-0.62,3.36-0.62c0.87,0,1.62,0.09,2.27,0.27
		c0.64,0.18,1.15,0.39,1.5,0.64c0.36,0.24,0.54,0.47,0.54,0.68c0,0.09-0.04,0.18-0.11,0.29s-0.16,0.19-0.27,0.25
		c-0.11,0.06-0.22,0.09-0.35,0.09c-0.19,0-0.41-0.09-0.65-0.26c-0.24-0.17-0.58-0.34-1.01-0.51c-0.43-0.16-1.05-0.25-1.85-0.25
		c-1.46,0-2.57,0.33-3.33,0.98s-1.14,1.53-1.14,2.64v2.97c0,1.11,0.38,1.99,1.14,2.64s1.88,0.98,3.36,0.98
		c0.84,0,1.49-0.09,1.95-0.26c0.45-0.17,0.8-0.35,1.04-0.52c0.24-0.17,0.47-0.26,0.68-0.26c0.15,0,0.27,0.04,0.36,0.1
		c0.1,0.07,0.18,0.15,0.25,0.23c0.07,0.09,0.11,0.18,0.11,0.29c0,0.19-0.19,0.42-0.55,0.68c-0.37,0.26-0.89,0.48-1.55,0.66
		C407.36,139.07,406.57,139.16,405.64,139.16z"/>
	<path class="st1" d="M417.84,139c-1.56,0-2.76-0.29-3.58-0.88s-1.24-1.53-1.24-2.81v-14c0-0.17,0.08-0.31,0.25-0.4
		c0.17-0.1,0.34-0.14,0.51-0.14c0.21,0,0.4,0.05,0.55,0.14c0.16,0.1,0.24,0.23,0.24,0.4v5.41h4.21c0.17,0,0.31,0.05,0.43,0.16
		s0.17,0.24,0.17,0.42c0,0.14-0.06,0.26-0.17,0.38s-0.26,0.17-0.43,0.17h-4.21v7.47c0,0.9,0.25,1.54,0.75,1.92
		c0.5,0.38,1.34,0.57,2.52,0.57h0.79c0.23,0,0.41,0.06,0.54,0.17c0.13,0.11,0.19,0.26,0.19,0.43c0,0.16-0.06,0.29-0.19,0.42
		c-0.13,0.12-0.31,0.18-0.54,0.18H417.84z"/>
</g>
<g>
	<path class="st2" d="M138.69,93c-3.12,0-5.75-0.87-7.9-2.62c-2.15-1.75-3.22-4.42-3.22-8.02c0-2.85,0.79-5.05,2.38-6.61
		c1.58-1.56,3.79-2.65,6.61-3.26c2.82-0.62,6.08-0.93,9.79-0.93h4.35v-2.1c0-1.88-0.34-3.73-1.01-5.56
		c-0.67-1.83-1.75-3.33-3.22-4.51c-1.48-1.18-3.45-1.77-5.92-1.77c-1.72,0-3.13,0.17-4.23,0.52c-1.1,0.35-1.99,0.73-2.66,1.13
		c-0.67,0.4-1.2,0.6-1.57,0.6c-0.54,0-0.97-0.25-1.29-0.77c-0.32-0.51-0.48-0.98-0.48-1.41c0-0.65,0.52-1.25,1.57-1.81
		c1.05-0.56,2.38-1.02,3.99-1.37c1.61-0.35,3.22-0.52,4.83-0.52c3.49,0,6.25,0.74,8.26,2.22c2.01,1.48,3.46,3.38,4.35,5.72
		c0.89,2.34,1.33,4.85,1.33,7.53v21.35c0,0.43-0.18,0.82-0.52,1.17c-0.35,0.35-0.82,0.52-1.41,0.52c-0.54,0-0.99-0.17-1.37-0.52
		c-0.38-0.35-0.56-0.74-0.56-1.17v-3.95c-1.34,1.56-3.02,2.97-5.04,4.23C143.73,92.37,141.37,93,138.69,93z M139.25,89.45
		c1.88,0,3.69-0.47,5.44-1.41c1.75-0.94,3.18-2.1,4.31-3.46c1.13-1.37,1.69-2.65,1.69-3.83v-5.96h-3.95c-2.63,0-5.1,0.15-7.41,0.44
		c-2.31,0.3-4.19,0.97-5.64,2.01c-1.45,1.05-2.18,2.7-2.18,4.96c0,2.53,0.75,4.37,2.26,5.52C135.28,88.88,137.1,89.45,139.25,89.45z
		"/>
</g>
<circle class="st2" cx="345.82" cy="22.59" r="5.65"/>
</svg>
